<svg width="500" height="500" viewBox="0 0 500 500" fill="none" xmlns="http://www.w3.org/2000/svg">
<path d="M74.9753 139.327C74.152 132.315 79.6198 126.154 86.6661 126.154H413.334C420.38 126.154 425.848 132.315 425.025 139.327L386.248 469.583C385.551 475.523 380.527 480 374.557 480H125.443C119.473 480 114.449 475.523 113.752 469.583L74.9753 139.327Z" fill="curren"/>
<path d="M198.418 20C193.959 20 189.883 22.5241 187.889 26.5201L179.371 43.5897H55.7714C49.2702 43.5897 44 48.8705 44 55.3846V102.564H456V55.3846C456 48.8705 450.73 43.5897 444.229 43.5897H320.629L312.111 26.52C310.117 22.5241 306.041 20 301.582 20H198.418Z" fill="black"/>
</svg>
