<svg width="500" height="500" viewBox="0 0 500 500" fill="none" xmlns="http://www.w3.org/2000/svg">
<path d="M176.35 41.2673C175.619 29.7462 184.766 20 196.31 20H303.69C315.234 20 324.381 29.7462 323.65 41.2673L306.189 316.267C305.521 326.8 296.783 335 286.23 335H213.77C203.217 335 194.479 326.8 193.811 316.267L176.35 41.2673Z" fill="#990000"/>
<path d="M312 417.5C312 452.018 284.018 480 249.5 480C214.982 480 187 452.018 187 417.5C187 382.982 214.982 355 249.5 355C284.018 355 312 382.982 312 417.5Z" fill="#990000"/>
</svg>
