<svg width="500" height="500" viewBox="0 0 500 500" fill="none" xmlns="http://www.w3.org/2000/svg">
<path d="M311.342 109.242C316.219 100.793 327.023 97.8981 335.472 102.776C343.921 107.654 346.815 118.457 341.937 126.906L189.155 391.533C184.277 399.982 173.474 402.876 165.025 397.998C156.576 393.121 153.681 382.317 158.559 373.868L311.342 109.242Z" fill="#E6E6FA"/>
<path d="M281.305 121.266C271.058 119.797 260.609 119 250 119C116.899 119 9 244.402 9 250C9 254.022 64.691 319.879 145.408 356.647L164.285 323.951C147.282 304.243 137 278.572 137 250.5C137 188.368 187.368 138 249.5 138C256.681 138 263.706 138.673 270.513 139.959L281.305 121.266Z" fill="#E6E6FA"/>
<path d="M229.723 361.267L219.567 378.858C229.535 380.248 239.692 381 250 381C383.101 381 491 255.598 491 250C491 245.99 435.652 180.527 355.339 143.694L335.53 178.004C352.046 197.584 362 222.879 362 250.5C362 312.632 311.632 363 249.5 363C242.752 363 236.144 362.406 229.723 361.267Z" fill="#E6E6FA"/>
<path d="M313.536 216.099C318.937 226.202 322 237.743 322 250C322 288.956 291.063 320.686 252.417 321.96L313.536 216.099Z" fill="#E6E6FA"/>
<path d="M248.542 178.015C241.662 178.151 235.019 179.253 228.742 181.19C233.586 183.787 237.545 187.82 240.052 192.719L248.542 178.015Z" fill="#E6E6FA"/>
<path d="M217.393 231.965L186.922 284.743C181.236 274.442 178 262.599 178 250C178 235.529 182.269 222.054 189.617 210.768C192.259 222.908 203.068 232 216 232C216.467 232 216.932 231.988 217.393 231.965Z" fill="#E6E6FA"/>
</svg>
