<svg width="500" height="500" viewBox="0 0 500 500" fill="none" xmlns="http://www.w3.org/2000/svg">
<path fill-rule="evenodd" clip-rule="evenodd" d="M267.5 66H232.5V62C232.5 39.6325 214.368 21.5 192 21.5C169.632 21.5 151.5 39.6325 151.5 62V66H129C87.5787 66 54 99.5786 54 141V383C54 424.421 87.5786 458 129 458H371C412.421 458 446 424.421 446 383V141C446 99.5787 412.421 66 371 66H348.5V62C348.5 39.6325 330.368 21.5 308 21.5C285.632 21.5 267.5 39.6325 267.5 62V66ZM192 135.5C177.321 135.5 164.466 127.691 157.363 116H129C115.193 116 104 127.193 104 141V178L396 178V141C396 127.193 384.807 116 371 116H342.637C335.534 127.691 322.679 135.5 308 135.5C293.321 135.5 280.466 127.691 273.363 116H226.637C219.534 127.691 206.679 135.5 192 135.5ZM104 383V203L396 203V383C396 396.807 384.807 408 371 408H129C115.193 408 104 396.807 104 383ZM176.5 95C176.5 103.56 183.44 110.5 192 110.5C200.56 110.5 207.5 103.56 207.5 95V62C207.5 53.4396 200.56 46.5 192 46.5C183.44 46.5 176.5 53.4396 176.5 62V95ZM292.5 95C292.5 103.56 299.44 110.5 308 110.5C316.56 110.5 323.5 103.56 323.5 95V62C323.5 53.4396 316.56 46.5 308 46.5C299.44 46.5 292.5 53.4396 292.5 62V95Z" fill="#a892ce"/>
<path d="M145 248C145 242.477 149.477 238 155 238H185C190.523 238 195 242.477 195 248V278C195 283.523 190.523 288 185 288H155C149.477 288 145 283.523 145 278V248Z" fill="#a892ce"/>
<path d="M225 248C225 242.477 229.477 238 235 238H265C270.523 238 275 242.477 275 248V278C275 283.523 270.523 288 265 288H235C229.477 288 225 283.523 225 278V248Z" fill="#a892ce"/>
<path d="M145 333C145 327.477 149.477 323 155 323H185C190.523 323 195 327.477 195 333V363C195 368.523 190.523 373 185 373H155C149.477 373 145 368.523 145 363V333Z" fill="#a892ce"/>
<path d="M225 333C225 327.477 229.477 323 235 323H265C270.523 323 275 327.477 275 333V363C275 368.523 270.523 373 265 373H235C229.477 373 225 368.523 225 363V333Z" fill="#a892ce"/>
<path d="M305 333C305 327.477 309.477 323 315 323H345C350.523 323 355 327.477 355 333V363C355 368.523 350.523 373 345 373H315C309.477 373 305 368.523 305 363V333Z" fill="#a892ce"/>
<path d="M305 248C305 242.477 309.477 238 315 238H345C350.523 238 355 242.477 355 248V278C355 283.523 350.523 288 345 288H315C309.477 288 305 283.523 305 278V248Z" fill="#a892ce"/>
</svg>
