<svg width="500" height="500" viewBox="0 0 500 500" fill="none" xmlns="http://www.w3.org/2000/svg">
<path d="M145 248C145 242.477 149.477 238 155 238H185C190.523 238 195 242.477 195 248V278C195 283.523 190.523 288 185 288H155C149.477 288 145 283.523 145 278V248Z" fill="#E6E6FA"/>
<path d="M145 248C145 242.477 149.477 238 155 238H185C190.523 238 195 242.477 195 248V278C195 283.523 190.523 288 185 288H155C149.477 288 145 283.523 145 278V248Z" fill="black" fill-opacity="0.05"/>
<path d="M145 333C145 327.477 149.477 323 155 323H185C190.523 323 195 327.477 195 333V363C195 368.523 190.523 373 185 373H155C149.477 373 145 368.523 145 363V333Z" fill="#E6E6FA"/>
<path d="M145 333C145 327.477 149.477 323 155 323H185C190.523 323 195 327.477 195 333V363C195 368.523 190.523 373 185 373H155C149.477 373 145 368.523 145 363V333Z" fill="black" fill-opacity="0.05"/>
<path d="M225 248C225 242.477 229.477 238 235 238H265C270.523 238 275 242.477 275 248V278C275 283.523 270.523 288 265 288H235C229.477 288 225 283.523 225 278V248Z" fill="#E6E6FA"/>
<path d="M225 248C225 242.477 229.477 238 235 238H265C270.523 238 275 242.477 275 248V278C275 283.523 270.523 288 265 288H235C229.477 288 225 283.523 225 278V248Z" fill="black" fill-opacity="0.05"/>
<path d="M225 333C225 327.477 229.477 323 235 323H265C270.523 323 275 327.477 275 333V363C275 368.523 270.523 373 265 373H235C229.477 373 225 368.523 225 363V333Z" fill="#E6E6FA"/>
<path d="M225 333C225 327.477 229.477 323 235 323H265C270.523 323 275 327.477 275 333V363C275 368.523 270.523 373 265 373H235C229.477 373 225 368.523 225 363V333Z" fill="black" fill-opacity="0.05"/>
<path d="M305 333C305 327.477 309.477 323 315 323H345C350.523 323 355 327.477 355 333V363C355 368.523 350.523 373 345 373H315C309.477 373 305 368.523 305 363V333Z" fill="#E6E6FA"/>
<path d="M305 333C305 327.477 309.477 323 315 323H345C350.523 323 355 327.477 355 333V363C355 368.523 350.523 373 345 373H315C309.477 373 305 368.523 305 363V333Z" fill="black" fill-opacity="0.05"/>
<path d="M305 248C305 242.477 309.477 238 315 238H345C350.523 238 355 242.477 355 248V278C355 283.523 350.523 288 345 288H315C309.477 288 305 283.523 305 278V248Z" fill="#E6E6FA"/>
<path d="M305 248C305 242.477 309.477 238 315 238H345C350.523 238 355 242.477 355 248V278C355 283.523 350.523 288 345 288H315C309.477 288 305 283.523 305 278V248Z" fill="black" fill-opacity="0.05"/>
<path d="M187 122.5C187 130.508 180.508 137 172.5 137C164.492 137 158 130.508 158 122.5V92.5C158 84.4919 164.492 78 172.5 78C180.508 78 187 84.4919 187 92.5V122.5Z" fill="#E6E6FA"/>
<path d="M187 122.5C187 130.508 180.508 137 172.5 137C164.492 137 158 130.508 158 122.5V92.5C158 84.4919 164.492 78 172.5 78C180.508 78 187 84.4919 187 92.5V122.5Z" fill="black" fill-opacity="0.05"/>
<path d="M341 122.5C341 130.508 334.508 137 326.5 137C318.492 137 312 130.508 312 122.5V92.5C312 84.4919 318.492 78 326.5 78C334.508 78 341 84.4919 341 92.5V122.5Z" fill="#E6E6FA"/>
<path d="M341 122.5C341 130.508 334.508 137 326.5 137C318.492 137 312 130.508 312 122.5V92.5C312 84.4919 318.492 78 326.5 78C334.508 78 341 84.4919 341 92.5V122.5Z" fill="black" fill-opacity="0.05"/>
<path fill-rule="evenodd" clip-rule="evenodd" d="M116.354 67.0615C120.794 42.8488 142.004 24.5 167.5 24.5C192.622 24.5 213.583 42.3145 218.439 66H280.561C285.417 42.3145 306.378 24.5 331.5 24.5C356.937 24.5 378.108 42.7642 382.615 66.8939C418.521 72.476 446 103.529 446 141V383C446 424.421 412.421 458 371 458H129C87.5786 458 54 424.421 54 383V141C54 103.888 80.9547 73.0724 116.354 67.0615ZM115.5 122.5C115.5 151.219 138.781 174.5 167.5 174.5C196.219 174.5 219.5 151.219 219.5 122.5V116H279.5V122.5C279.5 151.219 302.781 174.5 331.5 174.5C360.219 174.5 383.5 151.219 383.5 122.5V119.345C390.973 123.667 396 131.746 396 141V182.58C358.508 187.615 295.652 195 249.5 195C203.756 195 141.602 187.745 104 182.714V141C104 132.166 108.582 124.401 115.5 119.955V122.5ZM167.5 149.5C152.588 149.5 140.5 137.412 140.5 122.5V76.5C140.5 61.5883 152.588 49.5 167.5 49.5C182.412 49.5 194.5 61.5883 194.5 76.5V122.5C194.5 137.412 182.412 149.5 167.5 149.5ZM331.5 149.5C316.588 149.5 304.5 137.412 304.5 122.5V76.5C304.5 61.5883 316.588 49.5 331.5 49.5C346.412 49.5 358.5 61.5883 358.5 76.5V122.5C358.5 137.412 346.412 149.5 331.5 149.5ZM104 383V207.714C141.602 212.745 203.756 220 249.5 220C295.652 220 358.508 212.615 396 207.58V383C396 396.807 384.807 408 371 408H129C115.193 408 104 396.807 104 383Z" fill="#E6E6FA"/>
</svg>
