<svg width="500" height="500" viewBox="0 0 500 500" fill="none" xmlns="http://www.w3.org/2000/svg">
<path fill-rule="evenodd" clip-rule="evenodd" d="M217.614 28C204.91 28 194.611 38.3195 194.611 51.0492C194.611 103.189 145.904 125.169 106.197 102.198C95.1947 95.833 81.1263 99.6102 74.7742 110.634L42.691 166.316C36.3389 177.34 40.1085 191.437 51.1107 197.801C90.9529 220.85 94.1584 275.895 50.5054 301.149C39.5032 307.514 35.7336 321.61 42.0857 332.634L74.1688 388.316C80.521 399.34 94.5894 403.117 105.592 396.752C145.434 373.703 194.611 398.443 194.611 448.951C194.611 461.681 204.91 472 217.614 472H281.78C294.485 472 304.784 461.681 304.784 448.951C304.784 402.852 350.754 372.549 394.408 397.803C405.41 404.168 419.479 400.391 425.831 389.366L457.914 333.685C464.266 322.661 460.497 308.564 449.494 302.199C410.076 279.396 406.24 222.824 449.495 197.801C460.497 191.437 464.266 177.34 457.914 166.316L425.831 110.634C419.479 99.6102 405.411 95.833 394.408 102.198C350.755 127.452 304.784 97.1475 304.784 51.0492C304.784 38.3195 294.485 28 281.78 28H217.614ZM250 325C291.421 325 325 291.421 325 250C325 208.579 291.421 175 250 175C208.579 175 175 208.579 175 250C175 291.421 208.579 325 250 325Z" fill="#E6E6FA"/>
</svg>
