<svg width="500" height="500" viewBox="0 0 500 500" fill="none" xmlns="http://www.w3.org/2000/svg">
<path fill-rule="evenodd" clip-rule="evenodd" d="M120 230H149V150.5C149 94.9954 193.995 50 249.5 50C305.005 50 350 94.9954 350 150.5V230H380C391.046 230 400 238.954 400 250V460C400 471.046 391.046 480 380 480H120C108.954 480 100 471.046 100 460V250C100 238.954 108.954 230 120 230ZM300 150.5V230H199V150.5C199 122.61 221.61 100 249.5 100C277.39 100 300 122.61 300 150.5ZM288 337C288 349.596 281.871 360.761 272.433 367.675C272.558 368.068 272.661 368.471 272.742 368.883L278.428 397.883C279.761 404.679 274.558 411 267.634 411H233.111C226.271 411 221.09 404.824 222.279 398.088L227.396 369.088C227.475 368.641 227.58 368.204 227.71 367.779C218.191 360.874 212 349.66 212 337C212 316.013 229.013 299 250 299C270.987 299 288 316.013 288 337Z" fill="#55348D"/>
</svg>
