<svg width="500" height="500" viewBox="0 0 500 500" fill="none" xmlns="http://www.w3.org/2000/svg">
<path fill-rule="evenodd" clip-rule="evenodd" d="M250 381C383.101 381 491 255.598 491 250C491 244.402 383.101 119 250 119C116.899 119 9 244.402 9 250C9 255.598 116.899 381 250 381ZM249.5 363C311.632 363 362 312.632 362 250.5C362 188.368 311.632 138 249.5 138C187.368 138 137 188.368 137 250.5C137 312.632 187.368 363 249.5 363Z" fill="#E6E6FA"/>
<path d="M250 322C289.764 322 322 289.764 322 250C322 210.236 289.764 178 250 178C242.6 178 235.461 179.116 228.742 181.19C237.228 185.741 243 194.696 243 205C243 219.912 230.912 232 216 232C203.068 232 192.259 222.908 189.617 210.768C182.269 222.054 178 235.528 178 250C178 289.764 210.236 322 250 322Z" fill="#E6E6FA"/>
</svg>
