<svg width="500" height="500" viewBox="0 0 500 500" fill="none" xmlns="http://www.w3.org/2000/svg">
<path d="M361 149C361 210.304 311.304 260 250 260C188.696 260 139 210.304 139 149C139 87.6964 188.696 38 250 38C311.304 38 361 87.6964 361 149Z" fill="#55348D"/>
<path d="M450 481C450 454.736 444.827 428.728 434.776 404.463C424.725 380.198 409.993 358.15 391.421 339.579C372.85 321.007 350.802 306.275 326.537 296.224C302.272 286.173 276.264 281 250 281C223.736 281 197.728 286.173 173.463 296.224C149.198 306.275 127.15 321.007 108.579 339.579C90.0069 358.15 75.275 380.198 65.2241 404.463C55.1731 428.728 50 454.736 50 481H450Z" fill="#55348D"/>
</svg>
